# Blender 4.1.0
# www.blender.org
mtllib luces_pared.mtl
o luces
v -0.237048 0.625932 0.157252
v -0.237048 0.211890 0.157252
v 0.237048 0.625932 0.157252
v 0.237048 0.211890 0.157252
v 0.371975 -0.781026 -0.089039
v 0.371975 0.851292 -0.089039
v -0.371975 -0.781026 -0.089039
v -0.371975 0.851292 -0.089039
v 0.371975 -0.781026 0.056634
v 0.330968 -0.652676 0.113960
v 0.371975 0.851292 0.056634
v 0.330968 0.722942 0.113960
v -0.330968 -0.652676 0.113960
v -0.371975 -0.781026 0.056634
v -0.371975 0.851292 0.056634
v -0.330968 0.722942 0.113960
v 0.251210 0.190066 0.116242
v 0.251210 0.628843 0.116242
v -0.251210 0.190066 0.116242
v -0.251210 0.628843 0.116242
v 0.237048 -0.443807 0.157252
v 0.237048 -0.029766 0.157252
v -0.237048 -0.443807 0.157252
v -0.237048 -0.029766 0.157252
v 0.251210 -0.440269 0.116242
v 0.251210 -0.001492 0.116242
v -0.251210 -0.440269 0.116242
v -0.251210 -0.001492 0.116242
v -0.237048 0.182131 0.130314
v -0.237048 0.012251 0.130314
v 0.237048 0.182131 0.130314
v 0.237048 0.012251 0.130314
v 0.251210 0.003297 0.116492
v 0.251210 0.183326 0.116492
v -0.251210 0.003297 0.116492
v -0.251210 0.183326 0.116492
v -0.237048 -0.450708 0.130314
v -0.237048 -0.620588 0.130314
v 0.237048 -0.450708 0.130314
v 0.237048 -0.620588 0.130314
v 0.251210 -0.629543 0.116492
v 0.251210 -0.449514 0.116492
v -0.251210 -0.629543 0.116492
v -0.251210 -0.449514 0.116492
vn 1.0000 -0.0000 -0.0000
vn -0.0000 -0.0000 1.0000
vn -0.0000 -0.0000 -1.0000
vn -0.0000 1.0000 -0.0000
vn -1.0000 -0.0000 -0.0000
vn -0.0000 -0.4078 0.9131
vn 0.8133 -0.0000 0.5818
vn -0.0000 0.4078 0.9131
vn -0.8133 -0.0000 0.5818
vn -0.0000 -1.0000 -0.0000
vn -0.9452 -0.0000 0.3264
vn 0.9452 -0.0000 0.3264
vn -0.0000 -0.8828 0.4698
vn -0.0000 0.9975 0.0708
vn -0.0000 -0.9963 -0.0860
vn -0.0000 0.8233 0.5676
vn -0.6985 -0.0000 0.7156
vn 0.6985 -0.0000 0.7156
vn -0.0000 -0.8393 0.5437
vn -0.0000 0.9963 0.0861
vt 0.375000 0.750000
vt 0.625000 0.750000
vt 0.625000 0.986220
vt 0.375000 0.986220
vt 0.375000 0.000000
vt 0.625000 0.000000
vt 0.625000 0.250000
vt 0.375000 0.250000
vt 0.375000 0.500000
vt 0.625000 0.500000
vt 0.861220 0.500000
vt 0.861220 0.750000
vt 0.388780 0.013780
vt 0.611220 0.013780
vt 0.611220 0.236220
vt 0.388780 0.236220
vt 0.375000 0.263780
vt 0.625000 0.263780
vt 0.138780 0.500000
vt 0.138780 0.750000
vt 0.625000 1.000000
vt 0.375000 1.000000
vt 0.125000 0.500000
vt 0.125000 0.750000
vt 0.875000 0.500000
vt 0.875000 0.750000
s 0
usemtl Material.015
f 5/1/1 6/2/1 11/3/1 9/4/1
f 7/9/3 8/10/3 6/2/3 5/1/3
f 8/10/4 15/11/4 11/12/4 6/2/4
f 10/13/2 12/14/2 16/15/2 13/16/2
f 14/17/5 15/18/5 8/10/5 7/9/5
f 14/8/6 9/5/6 10/13/6 13/16/6
f 9/5/7 11/6/7 12/14/7 10/13/7
f 11/6/8 15/7/8 16/15/8 12/14/8
f 15/18/9 14/17/9 13/16/9 16/15/9
f 14/19/10 7/9/10 5/1/10 9/20/10
f 32/5/2 31/6/2 29/7/2 30/8/2
f 30/8/17 29/7/17 36/10/17 35/9/17
f 35/9/3 36/10/3 34/2/3 33/1/3
f 33/1/18 34/2/18 31/21/18 32/22/18
f 30/23/19 35/9/19 33/1/19 32/24/19
f 36/10/20 29/25/20 31/26/20 34/2/20
f 40/5/2 39/6/2 37/7/2 38/8/2
f 38/8/17 37/7/17 44/10/17 43/9/17
f 43/9/3 44/10/3 42/2/3 41/1/3
f 41/1/18 42/2/18 39/21/18 40/22/18
f 38/23/19 43/9/19 41/1/19 40/24/19
f 44/10/20 37/25/20 39/26/20 42/2/20
usemtl Material.014
f 21/5/2 22/6/2 24/7/2 23/8/2
f 23/8/11 24/7/11 28/10/11 27/9/11
f 27/9/3 28/10/3 26/2/3 25/1/3
f 25/1/12 26/2/12 22/21/12 21/22/12
f 23/23/15 27/9/15 25/1/15 21/24/15
f 28/10/16 24/25/16 22/26/16 26/2/16
usemtl Material.011
f 4/5/2 3/6/2 1/7/2 2/8/2
f 2/8/11 1/7/11 20/10/11 19/9/11
f 19/9/3 20/10/3 18/2/3 17/1/3
f 17/1/12 18/2/12 3/21/12 4/22/12
f 2/23/13 19/9/13 17/1/13 4/24/13
f 20/10/14 1/25/14 3/26/14 18/2/14
