# Blender 4.1.0
# www.blender.org
mtllib tele2.mtl
o tele2_blocking
v -1.000000 -1.000000 1.000000
v -1.000000 1.000000 1.000000
v -1.000000 -1.000000 -1.000000
v -1.000000 1.000000 -1.000000
v 1.000000 -0.742832 0.584516
v 1.000000 0.879459 0.879459
v 1.000000 -0.742832 -0.620561
v 1.000000 0.879459 -0.879458
v 1.000000 1.000000 -1.000000
v 1.000000 -0.857474 -0.624258
v 1.000000 -0.857474 0.588212
v 1.000000 1.000000 1.000000
v 1.000000 -1.000000 1.000000
v 1.000000 -1.000000 -1.000000
v 1.000000 -0.690421 0.879459
v 1.000000 -0.690421 -0.879458
v 0.986052 -0.794665 -0.800423
v 1.007138 -0.794665 -0.796525
v 0.986052 -0.819460 -0.795490
v 1.007138 -0.817969 -0.791890
v 0.986052 -0.840481 -0.781445
v 1.007138 -0.837725 -0.778689
v 0.986052 -0.854526 -0.760424
v 1.007138 -0.850926 -0.758933
v 0.986052 -0.859459 -0.735629
v 1.007138 -0.855561 -0.735629
v 0.986052 -0.854526 -0.710833
v 1.007138 -0.850926 -0.712325
v 0.986052 -0.840481 -0.689813
v 1.007138 -0.837725 -0.692568
v 0.986052 -0.819460 -0.675767
v 1.007138 -0.817969 -0.679368
v 0.986052 -0.794665 -0.670835
v 1.007138 -0.794665 -0.674732
v 0.986052 -0.769869 -0.675767
v 1.007138 -0.771361 -0.679368
v 0.986052 -0.748848 -0.689813
v 1.007138 -0.751604 -0.692568
v 0.986052 -0.734803 -0.710833
v 1.007138 -0.738404 -0.712325
v 0.986052 -0.729871 -0.735629
v 1.007138 -0.733768 -0.735629
v 0.986052 -0.734803 -0.760424
v 1.007138 -0.738404 -0.758933
v 0.986052 -0.748848 -0.781445
v 1.007138 -0.751604 -0.778689
v 0.986052 -0.769869 -0.795490
v 1.007138 -0.771361 -0.791890
v 0.974357 0.860191 -0.857871
v 0.974357 -0.671153 -0.857871
v 0.974357 -0.671153 0.857871
v 0.974357 0.860191 0.857871
v 0.990661 -0.850893 0.579529
v 0.990661 -0.850893 -0.615574
v 0.990661 -0.749413 0.575886
v 0.990661 -0.749413 -0.611931
vn -1.0000 -0.0000 -0.0000
vn -0.0000 -0.0000 -1.0000
vn 0.6007 -0.7995 -0.0000
vn -0.0000 -0.0000 1.0000
vn -0.0000 -1.0000 -0.0000
vn -0.0000 1.0000 -0.0000
vn 1.0000 -0.0000 -0.0000
vn 0.6796 -0.0249 0.7332
vn 0.1818 -0.0000 -0.9833
vn 0.1818 -0.3763 -0.9085
vn 0.1818 -0.6953 -0.6953
vn 0.1818 -0.9085 -0.3763
vn 0.1818 -0.9833 -0.0000
vn 0.1818 -0.9085 0.3763
vn 0.1818 -0.6953 0.6953
vn 0.1818 -0.3763 0.9085
vn 0.1818 -0.0000 0.9833
vn 0.1818 0.3763 0.9085
vn 0.1818 0.6953 0.6953
vn 0.1818 0.9085 0.3763
vn 0.1818 0.9833 -0.0000
vn 0.1818 0.9085 -0.3763
vn 0.1818 0.6953 -0.6953
vn 0.1818 0.3763 -0.9085
vn 0.6440 -0.0000 0.7650
vn 0.6440 -0.0000 -0.7650
vn 0.6007 0.7995 -0.0000
vn 0.5760 0.8174 -0.0000
vn 0.6796 -0.0249 -0.7332
vn 0.5760 -0.8174 -0.0000
vt 0.375000 0.000000
vt 0.625000 0.000000
vt 0.625000 0.250000
vt 0.375000 0.186365
vt 0.375000 0.500000
vt 0.414978 0.250000
vt 0.625000 0.500000
vt 0.609932 0.515068
vt 0.609932 0.734932
vt 0.375000 0.750000
vt 0.625000 0.750000
vt 0.625000 1.000000
vt 0.375000 1.000000
vt 0.125000 0.500000
vt 0.125000 0.750000
vt 0.875000 0.500000
vt 0.875000 0.750000
vt 0.390068 0.515068
vt 0.378765 0.514143
vt 0.386302 0.521680
vt 0.390068 0.734932
vt 0.378765 0.735857
vt 0.386302 0.728320
vt 1.000000 0.500000
vt 1.000000 1.000000
vt 0.937500 1.000000
vt 0.937500 0.500000
vt 0.875000 1.000000
vt 0.812500 1.000000
vt 0.812500 0.500000
vt 0.750000 1.000000
vt 0.750000 0.500000
vt 0.687500 1.000000
vt 0.687500 0.500000
vt 0.562500 1.000000
vt 0.562500 0.500000
vt 0.500000 1.000000
vt 0.500000 0.500000
vt 0.437500 1.000000
vt 0.437500 0.500000
vt 0.312500 1.000000
vt 0.312500 0.500000
vt 0.250000 1.000000
vt 0.250000 0.500000
vt 0.187500 1.000000
vt 0.187500 0.500000
vt 0.125000 1.000000
vt 0.341844 0.471731
vt 0.490000 0.250000
vt 0.471731 0.341844
vt 0.419706 0.419706
vt 0.062500 1.000000
vt 0.062500 0.500000
vt 0.000000 1.000000
vt 0.000000 0.500000
vt 0.750000 0.490000
vt 0.841844 0.471731
vt 0.580294 0.419706
vt 0.658156 0.471731
vt 0.080294 0.080294
vt 0.341844 0.028269
vt 0.158156 0.028269
vt 0.250000 0.010000
vt 0.419706 0.080294
vt 0.471731 0.158156
vt 0.080294 0.419706
vt 0.028269 0.158156
vt 0.028269 0.341844
vt 0.010000 0.250000
vt 0.250000 0.490000
vt 0.158156 0.471731
vt 0.841844 0.028269
vt 0.580294 0.080294
vt 0.528269 0.341844
vt 0.528269 0.158156
vt 0.510000 0.250000
vt 0.750000 0.010000
vt 0.658156 0.028269
vt 0.990000 0.250000
vt 0.971731 0.158156
vt 0.919706 0.080294
vt 0.919706 0.419706
vt 0.971731 0.341844
s 1
usemtl Material.012
f 1/1/1 2/2/1 4/3/1 3/4/1
f 14/5/2 3/6/2 4/3/2 9/7/2
f 8/8/3 6/9/3 52/9/3 49/8/3
f 13/10/4 12/11/4 2/12/4 1/13/4
f 3/14/5 14/5/5 13/10/5 1/15/5
f 9/7/6 4/16/6 2/17/6 12/11/6
f 8/8/7 16/18/7 14/5/7 9/7/7
f 10/19/8 7/20/8 56/20/8 54/19/8
f 6/9/7 8/8/7 9/7/7 12/11/7
f 15/21/7 6/9/7 12/11/7 13/10/7
f 10/19/7 11/22/7 13/10/7 14/5/7
f 5/23/7 7/20/7 16/18/7 15/21/7
f 7/20/7 10/19/7 14/5/7 16/18/7
f 11/22/7 5/23/7 15/21/7 13/10/7
f 16/18/25 8/8/25 49/8/25 50/18/25
f 6/9/26 15/21/26 51/21/26 52/9/26
f 15/21/27 16/18/27 50/18/27 51/21/27
f 11/22/28 10/19/28 54/19/28 53/22/28
f 5/23/29 11/22/29 53/22/29 55/23/29
f 7/20/30 5/23/30 55/23/30 56/20/30
usemtl Material.013
f 50/18/7 49/8/7 52/9/7 51/21/7
usemtl Material.014
f 17/24/9 18/25/9 20/26/10 19/27/10
f 19/27/10 20/26/10 22/28/11 21/16/11
f 21/16/11 22/28/11 24/29/12 23/30/12
f 23/30/12 24/29/12 26/31/13 25/32/13
f 25/32/13 26/31/13 28/33/14 27/34/14
f 27/34/14 28/33/14 30/12/15 29/7/15
f 29/7/15 30/12/15 32/35/16 31/36/16
f 31/36/16 32/35/16 34/37/17 33/38/17
f 33/38/17 34/37/17 36/39/18 35/40/18
f 35/40/18 36/39/18 38/13/19 37/5/19
f 37/5/19 38/13/19 40/41/20 39/42/20
f 39/42/20 40/41/20 42/43/21 41/44/21
f 41/44/21 42/43/21 44/45/22 43/46/22
f 43/46/22 44/45/22 46/47/23 45/14/23
f 20/48/7 26/49/7 24/50/7 22/51/7
f 45/14/23 46/47/23 48/52/24 47/53/24
f 47/53/24 48/52/24 18/54/9 17/55/9
f 17/56/1 19/57/1 45/58/1 47/59/1
f 56/20/7 55/23/7 53/22/7 54/19/7
f 26/49/7 20/48/7 38/60/7 32/61/7
f 32/61/7 38/60/7 36/62/7 34/63/7
f 32/61/7 30/64/7 28/65/7 26/49/7
f 38/60/7 20/48/7 46/66/7 40/67/7
f 40/67/7 46/66/7 44/68/7 42/69/7
f 46/66/7 20/48/7 18/70/7 48/71/7
f 45/58/1 31/72/1 37/73/1 43/74/1
f 43/74/1 37/73/1 39/75/1 41/76/1
f 37/73/1 31/72/1 33/77/1 35/78/1
f 31/72/1 25/79/1 27/80/1 29/81/1
f 25/79/1 19/57/1 21/82/1 23/83/1
f 25/79/1 31/72/1 45/58/1 19/57/1
