# Blender 4.1.0
# www.blender.org
mtllib mesa.mtl
o Mesa
v -1.481402 -1.834990 4.498193
v -1.481402 1.834990 4.498193
v -1.481402 -1.834990 -4.498193
v -1.481402 1.834990 -4.498193
v 1.481402 -1.834990 4.498193
v 1.481402 1.834990 4.498193
v 1.481402 -1.834990 -4.498193
v 1.481402 1.834990 -4.498193
v -1.481402 1.513461 4.498193
v -1.481402 1.513461 -4.498193
v 1.481402 1.513461 -4.498193
v 1.481402 1.513461 4.498193
v -1.481402 -1.834990 -4.159369
v -1.481402 1.834990 -4.159369
v 1.481402 -1.834990 -4.159369
v 1.481402 1.834990 -4.159369
v 1.481402 1.513461 -4.159369
v -1.481402 1.513461 -4.159369
v -1.481402 -1.834990 4.171493
v 1.481402 1.834990 4.171493
v 1.481402 1.513461 4.171493
v -1.481402 1.834990 4.171493
v 1.481402 -1.834990 4.171493
v -1.481402 1.513461 4.171493
v -1.481402 -0.960596 -4.498193
v 1.481402 -0.960596 -4.498193
v 1.481402 -0.960596 4.498193
v -1.481402 -0.960596 4.498193
v -1.481402 -0.960596 -4.159369
v 1.481402 -0.960596 -4.159369
v -1.481402 -0.960596 4.171493
v 1.481402 -0.960596 4.171493
v -1.409129 -0.959177 -4.159369
v -1.409129 -0.959177 4.171493
v -1.409620 1.514312 -4.159369
v -1.409620 1.514312 4.171493
v -1.282428 -0.239778 4.159997
v -1.282428 1.477599 4.159997
v -1.282428 -0.239778 0.778765
v -1.282428 1.477599 0.778765
v 1.282428 -0.239778 4.159997
v 1.282428 1.477599 4.159997
v 1.282428 -0.239778 0.778765
v 1.282428 1.477599 0.778765
v -1.282428 -0.239778 0.998220
v -1.282428 1.477599 0.998220
v 1.282428 -0.239778 0.998220
v 1.282428 1.477599 0.998220
v -1.282428 -0.025106 4.159997
v -1.282428 -0.025106 0.778765
v 1.282428 -0.025106 0.778765
v 1.282428 -0.025106 4.159997
v 1.282428 -0.025106 0.998220
v -1.282428 -0.025106 0.998220
v 1.190293 1.477599 0.998220
v 1.190293 1.477599 4.159997
v 1.190293 -0.025106 4.159997
v 1.190293 -0.025106 0.998220
v -1.282428 0.726247 4.159997
v -1.282428 0.726247 0.778765
v 1.282428 0.726247 0.778765
v 1.282428 0.726247 4.159997
v 1.282428 0.726247 0.998220
v -1.282428 0.726247 0.998220
v 1.190293 0.726247 4.159997
v 1.190293 0.726247 0.998220
v 1.191559 0.546256 3.378693
v 1.191559 0.396399 3.378693
v 1.191559 0.546256 1.674328
v 1.191559 0.396399 1.674328
v 1.283486 0.520964 3.316695
v 1.263069 0.546256 3.378693
v 1.263069 0.396399 3.378693
v 1.283486 0.421691 3.316695
v 1.283486 0.520964 1.736326
v 1.263069 0.546256 1.674328
v 1.283486 0.421691 1.736326
v 1.263069 0.396399 1.674328
v 1.191559 1.329107 3.378693
v 1.191559 1.179250 3.378693
v 1.191559 1.329107 1.674328
v 1.191559 1.179250 1.674328
v 1.283486 1.303815 3.316695
v 1.263069 1.329107 3.378693
v 1.263069 1.179250 3.378693
v 1.283486 1.204542 3.316695
v 1.283486 1.303815 1.736326
v 1.263069 1.329107 1.674328
v 1.283486 1.204542 1.736326
v 1.263069 1.179250 1.674328
v -1.481402 1.834990 -4.777969
v 1.481402 1.834990 -4.777969
v -1.481402 1.513461 -4.777969
v 1.481402 1.513461 -4.777969
v -1.481402 1.513461 4.777969
v -1.481402 1.834990 4.777969
v 1.481402 1.834990 4.777969
v 1.481402 1.513461 4.777969
vn -1.0000 -0.0000 -0.0000
vn -0.0000 1.0000 -0.0000
vn 1.0000 -0.0000 -0.0000
vn -0.0000 -1.0000 -0.0000
vn -0.0000 -0.0000 1.0000
vn -0.0000 -0.0000 -1.0000
vn 0.0196 -0.9998 -0.0000
vn 1.0000 0.0002 -0.0000
vn -0.0119 0.9999 -0.0000
vn -0.0003 -1.0000 -0.0000
vn -0.9498 -0.0000 0.3128
vn -0.7781 -0.6281 -0.0000
vn -0.7781 0.6281 -0.0000
vn -0.9498 -0.0000 -0.3128
vt 0.594531 0.240584
vt 0.625000 0.240584
vt 0.625000 0.250000
vt 0.594531 0.250000
vt 0.875000 0.500000
vt 0.625000 0.500000
vt 0.594531 0.740921
vt 0.625000 0.740921
vt 0.625000 0.750000
vt 0.594531 0.750000
vt 0.594531 1.000000
vt 0.125000 0.740921
vt 0.375000 0.740921
vt 0.375000 0.750000
vt 0.125000 0.750000
vt 0.875000 0.740921
vt 0.875000 0.750000
vt 0.432327 0.750000
vt 0.432327 1.000000
vt 0.432327 0.740921
vt 0.432327 0.250000
vt 0.594531 0.500000
vt 0.432327 0.500000
vt 0.432327 0.240584
vt 0.432327 0.009079
vt 0.594531 0.009079
vt 0.594531 0.509416
vt 0.432327 0.509416
vt 0.875000 0.509416
vt 0.625000 0.509416
vt 0.125000 0.500000
vt 0.375000 0.500000
vt 0.375000 0.509416
vt 0.125000 0.509416
vt 0.625000 0.009079
vt 0.594531 0.000000
vt 0.625000 0.000000
vt 0.432327 0.000000
vt 0.375000 0.000000
vt 0.375000 0.009079
vt 0.375000 0.240584
vt 0.375000 0.250000
vt 0.375000 1.000000
vt 0.000000 0.000000
vt 0.515625 0.233774
vt 0.625000 0.233774
vt 0.515625 0.250000
vt 0.515625 0.500000
vt 0.515625 0.750000
vt 0.406250 0.750000
vt 0.625000 1.000000
vt 0.515625 1.000000
vt 0.125000 0.516226
vt 0.375000 0.516226
vt 0.625000 0.516226
vt 0.875000 0.516226
vt 0.515625 0.516226
vt 0.515625 0.000000
vt 0.406250 0.000000
vt 0.406250 0.233774
vt 0.375000 0.233774
vt 0.406250 0.500000
vt 0.406250 0.516226
vt 0.406250 1.000000
vt 0.406250 0.250000
vt 0.375000 0.805527
vt 0.625000 0.805527
vt 0.680527 0.500000
vt 0.680527 0.750000
vt 0.417193 0.509094
vt 0.582807 0.509094
vt 0.582807 0.740906
vt 0.417193 0.740906
vt 0.625000 0.444473
vt 0.375000 0.444473
vt 0.319473 0.750000
vt 0.319473 0.500000
s 0
usemtl Material.018
f 18/1/1 14/2/1 4/3/1 10/4/1
f 4/5/2 8/6/2 92/6/2 91/5/2
f 21/7/3 20/8/3 6/9/3 12/10/3
f 9/11/4 12/10/4 98/10/4 95/11/4
f 19/12/4 23/13/4 5/14/4 1/15/4
f 20/8/2 22/16/2 2/17/2 6/9/2
f 27/18/5 12/10/5 9/11/5 28/19/5
f 32/20/3 21/7/3 12/10/3 27/18/3
f 25/21/6 10/4/6 11/22/6 26/23/6
f 29/24/1 18/1/1 10/4/1 25/21/1
f 31/25/1 24/26/1 18/1/1 29/24/1
f 26/23/3 11/22/3 17/27/3 30/28/3
f 8/6/2 4/5/2 14/29/2 16/30/2
f 3/31/4 7/32/4 15/33/4 13/34/4
f 11/22/3 8/6/3 16/30/3 17/27/3
f 24/26/1 22/35/1 14/2/1 18/1/1
f 9/36/1 2/37/1 22/35/1 24/26/1
f 28/38/1 9/36/1 24/26/1 31/25/1
f 16/30/2 14/29/2 22/16/2 20/8/2
f 17/27/3 16/30/3 20/8/3 21/7/3
f 1/39/1 28/38/1 31/25/1 19/40/1
f 7/32/3 26/23/3 30/28/3 15/33/3
f 13/41/1 29/24/1 25/21/1 3/42/1
f 3/42/6 25/21/6 26/23/6 7/32/6
f 23/13/3 32/20/3 27/18/3 5/14/3
f 5/14/5 27/18/5 28/19/5 1/43/5
f 31/25/7 29/24/7 33/24/7 34/25/7
f 34/25/8 33/24/8 35/24/8 36/25/8
f 18/44/6 35/44/6 33/44/6 29/44/6
f 36/44/5 24/44/5 31/44/5 34/44/5
f 24/44/9 36/44/9 35/44/9 18/44/9
f 33/44/5 15/44/5 30/44/5
f 31/44/6 34/44/6 23/44/6 19/44/6
f 36/44/6 21/44/6 32/44/6 34/44/6
f 17/44/5 35/44/5 33/44/5 30/44/5
f 35/44/10 17/44/10 21/44/10 36/44/10
f 64/45/1 46/46/1 40/3/1 60/47/1
f 60/47/6 40/3/6 44/6/6 61/48/6
f 62/49/6 52/50/6 57/50/6 65/49/6
f 62/49/5 42/9/5 38/51/5 59/52/5
f 45/53/4 47/54/4 41/14/4 37/15/4
f 48/55/2 46/56/2 38/17/2 42/9/2
f 44/6/2 40/5/2 46/56/2 48/55/2
f 39/31/4 43/32/4 47/54/4 45/53/4
f 61/48/3 44/6/3 48/55/3 63/57/3
f 59/58/1 38/37/1 46/46/1 64/45/1
f 37/39/1 49/59/1 54/60/1 45/61/1
f 43/32/3 51/62/3 53/63/3 47/54/3
f 41/14/5 52/50/5 49/64/5 37/43/5
f 47/54/3 53/63/3 52/50/3 41/14/3
f 39/42/6 50/65/6 51/62/6 43/32/6
f 45/61/1 54/60/1 50/65/1 39/42/1
f 66/57/3 55/55/3 56/9/3 65/49/3
f 48/55/4 42/9/4 56/9/4 55/55/4
f 63/57/5 48/55/5 55/55/5 66/57/5
f 52/50/2 53/63/2 58/63/2 57/50/2
f 53/63/5 63/57/5 66/57/5 58/63/5
f 58/63/3 66/57/3 65/49/3 57/50/3
f 49/59/1 59/58/1 64/45/1 54/60/1
f 51/62/3 61/48/3 63/57/3 53/63/3
f 52/50/5 62/49/5 59/52/5 49/64/5
f 42/9/6 62/49/6 65/49/6 56/9/6
f 50/65/6 60/47/6 61/48/6 51/62/6
f 54/60/1 64/45/1 60/47/1 50/65/1
f 67/39/3 68/37/3 70/3/3 69/42/3
f 72/66/6 73/67/6 68/51/6 67/43/6
f 78/68/2 70/5/2 68/17/2 73/69/2
f 75/70/1 77/71/1 74/72/1 71/73/1
f 69/42/5 70/3/5 78/74/5 76/75/5
f 77/71/11 75/70/11 76/75/11 78/74/11
f 72/76/12 76/77/12 75/70/12 71/73/12
f 78/68/13 73/69/13 74/72/13 77/71/13
f 73/67/14 72/66/14 71/73/14 74/72/14
f 69/31/4 76/77/4 72/76/4 67/15/4
f 79/39/3 80/37/3 82/3/3 81/42/3
f 84/66/6 85/67/6 80/51/6 79/43/6
f 90/68/2 82/5/2 80/17/2 85/69/2
f 87/70/1 89/71/1 86/72/1 83/73/1
f 81/42/5 82/3/5 90/74/5 88/75/5
f 89/71/11 87/70/11 88/75/11 90/74/11
f 84/76/12 88/77/12 87/70/12 83/73/12
f 90/68/13 85/69/13 86/72/13 89/71/13
f 85/67/14 84/66/14 83/73/14 86/72/14
f 81/31/4 88/77/4 84/76/4 79/15/4
f 93/4/6 91/3/6 92/6/6 94/22/6
f 8/6/3 11/22/3 94/22/3 92/6/3
f 10/4/1 4/3/1 91/3/1 93/4/1
f 11/22/4 10/4/4 93/4/4 94/22/4
f 98/10/5 97/9/5 96/51/5 95/11/5
f 2/37/1 9/36/1 95/36/1 96/37/1
f 12/10/3 6/9/3 97/9/3 98/10/3
f 6/9/2 2/17/2 96/17/2 97/9/2
f 15/44/5 33/44/5 29/44/5 13/44/5
f 23/44/6 34/44/6 32/44/6
