# Blender 4.1.0
# www.blender.org
mtllib refresco.mtl
o refresco_blocking
v -0.012402 -0.556625 -0.241250
v -0.012402 0.515069 -0.312604
v 0.077499 -0.556625 -0.223368
v 0.104805 0.515069 -0.289290
v 0.153714 -0.556625 -0.172443
v 0.204168 0.515069 -0.222898
v 0.204638 -0.556625 -0.096228
v 0.270561 0.515069 -0.123534
v 0.222521 -0.556625 -0.006327
v 0.293874 0.515069 -0.006327
v 0.204638 -0.556625 0.083574
v 0.270561 0.515069 0.110879
v 0.153714 -0.556625 0.159788
v 0.204168 0.515069 0.210242
v 0.077499 -0.556625 0.210713
v 0.104805 0.515069 0.276635
v -0.012402 -0.556625 0.228595
v -0.012402 0.515069 0.299949
v -0.102303 -0.556625 0.210713
v -0.129609 0.515069 0.276635
v -0.178518 -0.556625 0.159788
v -0.228972 0.515069 0.210242
v -0.229442 -0.556625 0.083574
v -0.295364 0.515069 0.110879
v -0.247325 -0.556625 -0.006327
v -0.318678 0.515069 -0.006327
v -0.229442 -0.556625 -0.096228
v -0.295364 0.515069 -0.123534
v -0.178518 -0.556625 -0.172443
v -0.228972 0.515069 -0.222898
v -0.102303 -0.556625 -0.223368
v -0.129609 0.515069 -0.289290
v -0.012402 0.346996 -0.301414
v 0.100523 0.346996 -0.278952
v 0.196255 0.346996 -0.214985
v 0.260222 0.346996 -0.119252
v 0.282684 0.346996 -0.006327
v 0.260222 0.346996 0.106597
v 0.196255 0.346996 0.202330
v 0.100523 0.346996 0.266296
v -0.012402 0.346996 0.288758
v -0.125326 0.346996 0.266296
v -0.221059 0.346996 0.202330
v -0.285026 0.346996 0.106597
v -0.307488 0.346996 -0.006327
v -0.285026 0.346996 -0.119252
v -0.221059 0.346996 -0.214985
v -0.125326 0.346996 -0.278952
v 0.112131 0.510002 -0.306978
v -0.012402 0.510002 -0.331749
v -0.012402 0.341930 -0.320558
v 0.217706 0.510002 -0.236435
v 0.288248 0.510002 -0.130861
v 0.313019 0.510002 -0.006327
v 0.288248 0.510002 0.118206
v 0.217706 0.510002 0.223780
v 0.112131 0.510002 0.294322
v -0.012402 0.510002 0.319093
v -0.136935 0.510002 0.294322
v -0.242510 0.510002 0.223780
v -0.313052 0.510002 0.118206
v -0.337823 0.510002 -0.006327
v -0.313052 0.510002 -0.130861
v -0.242510 0.510002 -0.236435
v -0.136935 0.510002 -0.306978
v 0.107849 0.341930 -0.296639
v 0.209793 0.341930 -0.228522
v 0.277910 0.341930 -0.126579
v 0.301829 0.341930 -0.006327
v 0.277910 0.341930 0.113923
v 0.209793 0.341930 0.215867
v 0.107849 0.341930 0.283984
v -0.012402 0.341930 0.307903
v -0.132653 0.341930 0.283984
v -0.234597 0.341930 0.215867
v -0.302714 0.341930 0.113923
v -0.326633 0.341930 -0.006327
v -0.302714 0.341930 -0.126579
v -0.234597 0.341930 -0.228522
v -0.132653 0.341930 -0.296639
v 0.007751 0.477321 -0.056280
v 0.007751 0.891146 -0.056280
v 0.019982 0.477321 -0.053847
v 0.019982 0.891146 -0.053847
v 0.030350 0.477321 -0.046920
v 0.030350 0.891146 -0.046920
v 0.037278 0.477321 -0.036551
v 0.037278 0.891146 -0.036551
v 0.039711 0.477321 -0.024321
v 0.039711 0.891146 -0.024321
v 0.037278 0.477321 -0.012090
v 0.037278 0.891146 -0.012090
v 0.030350 0.477321 -0.001722
v 0.030350 0.891146 -0.001722
v 0.019982 0.477321 0.005206
v 0.019982 0.891146 0.005206
v 0.007751 0.477321 0.007639
v 0.007751 0.891146 0.007639
v -0.004479 0.477321 0.005206
v -0.004479 0.891146 0.005206
v -0.014847 0.477321 -0.001722
v -0.014847 0.891146 -0.001722
v -0.021775 0.477321 -0.012090
v -0.021775 0.891146 -0.012090
v -0.024208 0.477321 -0.024321
v -0.024208 0.891146 -0.024321
v -0.021775 0.477321 -0.036551
v -0.021775 0.891146 -0.036551
v -0.014847 0.477321 -0.046920
v -0.014847 0.891146 -0.046920
v -0.004479 0.477321 -0.053847
v -0.004479 0.891146 -0.053847
v 0.019982 0.932801 -0.058723
v 0.007751 0.931745 -0.060914
v 0.030350 0.935809 -0.052482
v 0.037278 0.940311 -0.043142
v 0.039711 0.945622 -0.032125
v 0.037278 0.950932 -0.021107
v 0.030350 0.955434 -0.011767
v 0.019982 0.958442 -0.005527
v 0.007751 0.959498 -0.003335
v -0.004479 0.958442 -0.005527
v -0.014847 0.955434 -0.011767
v -0.021775 0.950932 -0.021107
v -0.024208 0.945622 -0.032125
v -0.021775 0.940311 -0.043142
v -0.014847 0.935809 -0.052482
v -0.004479 0.932801 -0.058723
v 0.019982 0.954220 -0.064935
v 0.007751 0.952233 -0.066339
v 0.030350 0.959877 -0.060936
v 0.037278 0.968343 -0.054950
v 0.039711 0.978330 -0.047891
v 0.037278 0.988317 -0.040831
v 0.030350 0.996784 -0.034846
v 0.019982 1.002441 -0.030847
v 0.007751 1.004428 -0.029443
v -0.004479 1.002441 -0.030847
v -0.014847 0.996784 -0.034846
v -0.021775 0.988317 -0.040831
v -0.024208 0.978330 -0.047891
v -0.021775 0.968343 -0.054950
v -0.014847 0.959877 -0.060936
v -0.004479 0.954220 -0.064935
v 0.019982 0.970933 -0.083049
v 0.007751 0.968526 -0.083403
v 0.030350 0.977787 -0.082041
v 0.037278 0.988045 -0.080532
v 0.039711 1.000146 -0.078753
v 0.037278 1.012246 -0.076973
v 0.030350 1.022504 -0.075464
v 0.019982 1.029358 -0.074456
v 0.007751 1.031765 -0.074102
v -0.004479 1.029358 -0.074456
v -0.014847 1.022504 -0.075464
v -0.021775 1.012246 -0.076973
v -0.024208 1.000146 -0.078753
v -0.021775 0.988045 -0.080532
v -0.014847 0.977787 -0.082041
v -0.004479 0.970933 -0.083049
v 0.019982 0.980671 -0.107103
v 0.007751 0.978374 -0.106300
v 0.030350 0.987211 -0.109387
v 0.037278 0.996999 -0.112807
v 0.039711 1.008545 -0.116841
v 0.037278 1.020091 -0.120874
v 0.030350 1.029879 -0.124294
v 0.019982 1.036419 -0.126579
v 0.007751 1.038717 -0.127382
v -0.004479 1.036419 -0.126579
v -0.014847 1.029879 -0.124294
v -0.021775 1.020091 -0.120874
v -0.024208 1.008545 -0.116841
v -0.021775 0.996999 -0.112807
v -0.014847 0.987211 -0.109387
v -0.004479 0.980671 -0.107103
v 0.019982 0.975872 -0.123231
v 0.007751 0.973821 -0.121923
v 0.030350 0.981713 -0.126958
v 0.037278 0.990454 -0.132535
v 0.039711 1.000764 -0.139113
v 0.037278 1.011075 -0.145690
v 0.030350 1.019816 -0.151267
v 0.019982 1.025656 -0.154993
v 0.007751 1.027707 -0.156302
v -0.004479 1.025656 -0.154993
v -0.014847 1.019816 -0.151267
v -0.021775 1.011075 -0.145690
v -0.024208 1.000764 -0.139113
v -0.021775 0.990454 -0.132535
v -0.014847 0.981713 -0.126958
v -0.004479 0.975872 -0.123231
v 0.019982 0.802254 -0.395369
v 0.007751 0.800204 -0.394060
v 0.030350 0.808095 -0.399095
v 0.037278 0.816836 -0.404672
v 0.039711 0.827146 -0.411250
v 0.037278 0.837457 -0.417828
v 0.030350 0.846198 -0.423404
v 0.019982 0.852038 -0.427131
v 0.007751 0.854090 -0.428439
v -0.004479 0.852038 -0.427131
v -0.014847 0.846198 -0.423404
v -0.021775 0.837457 -0.417828
v -0.024208 0.827146 -0.411250
v -0.021775 0.816836 -0.404672
v -0.014847 0.808095 -0.399095
v -0.004479 0.802254 -0.395369
vn 0.0561 0.9892 -0.1355
vn 0.1037 0.9892 -0.1037
vn 0.1809 0.9667 -0.1809
vn 0.0979 0.9667 -0.2364
vn -0.0000 -0.9667 -0.2558
vn -0.0979 -0.9667 -0.2364
vn 0.0979 -0.9667 -0.2364
vn -0.1037 0.9892 -0.1037
vn -0.0561 0.9892 -0.1355
vn -0.0979 0.9667 -0.2364
vn -0.1809 0.9667 -0.1809
vn 0.1355 0.9892 0.0561
vn 0.1037 0.9892 0.1037
vn 0.1809 0.9667 0.1809
vn 0.2364 0.9667 0.0979
vn 0.1809 -0.9667 -0.1809
vn -0.0561 0.9892 0.1355
vn -0.1037 0.9892 0.1037
vn -0.1809 0.9667 0.1809
vn -0.0979 0.9667 0.2364
vn 0.2364 -0.9667 -0.0979
vn -0.0000 0.9892 -0.1466
vn -0.0000 0.9667 -0.2559
vn 0.2559 -0.9667 -0.0000
vn -0.1355 0.9892 -0.0561
vn -0.2364 0.9667 -0.0979
vn 0.1466 0.9892 -0.0000
vn 0.2559 0.9667 -0.0000
vn 0.2364 -0.9667 0.0979
vn -0.0000 0.9892 0.1466
vn -0.0000 0.9667 0.2559
vn 0.1809 -0.9667 0.1809
vn -0.0979 -0.9667 0.2364
vn -0.0000 -0.9667 0.2559
vn -0.0000 -1.0000 -0.0000
vn -0.3818 -0.0664 -0.9218
vn -0.0000 -0.0664 -0.9978
vn -0.7055 -0.0664 -0.7055
vn -0.9218 -0.0664 -0.3818
vn -0.9978 -0.0664 -0.0000
vn -0.9218 -0.0664 0.3818
vn -0.7055 -0.0664 0.7055
vn -0.3818 -0.0664 0.9218
vn -0.0000 -0.0664 0.9978
vn 0.3818 -0.0664 0.9218
vn 0.7055 -0.0664 0.7055
vn 0.9218 -0.0664 0.3818
vn 0.9978 -0.0664 -0.0000
vn 0.9218 -0.0664 -0.3818
vn 0.7055 -0.0664 -0.7055
vn 0.3818 -0.0664 -0.9218
vn -0.1355 0.9892 0.0561
vn -0.2364 0.9667 0.0979
vn -0.1809 -0.9667 -0.1809
vn 0.0561 0.9892 0.1355
vn 0.0979 0.9667 0.2364
vn -0.2364 -0.9667 -0.0979
vn -0.2559 -0.9667 -0.0000
vn 0.1355 0.9892 -0.0561
vn 0.2364 0.9667 -0.0979
vn -0.1466 0.9892 -0.0000
vn -0.2559 0.9667 -0.0000
vn -0.2364 -0.9667 0.0979
vn -0.1809 -0.9667 0.1809
vn 0.0979 -0.9667 0.2364
vn -0.0000 -0.0000 -1.0000
vn -0.0000 -0.0578 -0.9983
vn 0.3835 -0.0546 -0.9219
vn 0.3827 -0.0000 -0.9239
vn 0.7104 -0.0437 -0.7024
vn 0.7071 -0.0000 -0.7071
vn 0.9282 -0.0240 -0.3714
vn 0.9239 -0.0000 -0.3827
vn 0.9998 0.0029 0.0175
vn 1.0000 -0.0000 -0.0000
vn 0.9160 0.0315 0.4000
vn 0.9239 -0.0000 0.3827
vn 0.6947 0.0555 0.7171
vn 0.7071 -0.0000 0.7071
vn 0.3735 0.0711 0.9249
vn 0.3827 -0.0000 0.9239
vn -0.0000 0.0764 0.9971
vn -0.0000 -0.0000 1.0000
vn -0.3735 0.0711 0.9249
vn -0.3827 -0.0000 0.9239
vn -0.6947 0.0555 0.7171
vn -0.7071 -0.0000 0.7071
vn -0.9160 0.0315 0.4000
vn -0.9239 -0.0000 0.3827
vn -0.9998 0.0029 0.0175
vn -1.0000 -0.0000 -0.0000
vn -0.9282 -0.0240 -0.3714
vn -0.9239 -0.0000 -0.3827
vn -0.7104 -0.0437 -0.7024
vn -0.7071 -0.0000 -0.7071
vn 0.9108 0.1329 0.3909
vn 0.6893 0.2270 0.6880
vn -0.3835 -0.0546 -0.9219
vn -0.3827 -0.0000 -0.9239
vn 0.7001 -0.1631 -0.6951
vn 0.3681 -0.1871 -0.9107
vn 0.3516 -0.2680 -0.8970
vn 0.7088 -0.3825 -0.5926
vn -0.6893 0.2270 0.6880
vn -0.9108 0.1329 0.3909
vn -0.3681 -0.1871 -0.9107
vn -0.0000 -0.1900 -0.9818
vn 0.9287 -0.0934 -0.3588
vn 0.9995 0.0167 0.0269
vn -0.0000 0.1580 0.9874
vn -0.3705 0.2870 0.8834
vn -0.9287 -0.0934 -0.3588
vn -0.7001 -0.1631 -0.6951
vn 0.3705 0.2870 0.8834
vn -0.9995 0.0167 0.0269
vn 0.3811 0.6127 0.6923
vn 0.7041 0.4700 0.5323
vn 0.7077 0.6591 0.2544
vn 0.3815 0.8657 0.3240
vn -0.3811 0.6127 0.6923
vn -0.7041 0.4700 0.5323
vn 0.9331 -0.2081 -0.2934
vn -0.9191 0.2649 0.2916
vn 0.9995 0.0298 0.0102
vn -0.9995 0.0298 0.0102
vn 0.9191 0.2649 0.2916
vn -0.9331 -0.2081 -0.2934
vn -0.7088 -0.3825 -0.5926
vn -0.3516 -0.2680 -0.8970
vn -0.0000 0.5006 0.8657
vn -0.0000 0.6638 0.7479
vn -0.0000 -0.2676 -0.9635
vn -0.9792 0.1878 0.0773
vn -0.9792 0.1863 0.0804
vn -0.9808 0.1923 -0.0327
vn -0.9800 0.1988 0.0039
vn -0.3766 -0.6855 -0.6230
vn -0.6985 -0.6189 -0.3592
vn -0.3635 -0.7838 -0.5034
vn -0.0000 0.9378 0.3471
vn 0.3766 -0.6855 -0.6230
vn -0.0000 -0.7292 -0.6842
vn -0.0000 -0.8316 -0.5554
vn 0.3635 -0.7838 -0.5034
vn -0.3815 0.8657 0.3240
vn 0.6985 -0.6189 -0.3592
vn -0.7077 0.6591 0.2544
vn 0.8124 -0.5122 -0.2787
vn -0.8227 0.5301 0.2051
vn 0.9786 -0.1865 -0.0864
vn 0.9787 -0.1854 -0.0884
vn 0.9792 0.1878 0.0773
vn 0.9792 0.1863 0.0804
vn -0.9787 -0.1854 -0.0884
vn -0.9786 -0.1865 -0.0864
vn 0.8227 0.5301 0.2051
vn -0.8124 -0.5122 -0.2787
vn -0.7182 0.6912 -0.0803
vn -0.3905 0.9132 -0.1167
vn -0.3919 0.8187 -0.4196
vn -0.7201 0.6187 -0.3141
vn 0.9800 0.1988 0.0039
vn 0.9808 0.1923 -0.0327
vn -0.9807 -0.1933 0.0283
vn -0.9797 -0.1999 -0.0119
vn 0.8288 0.5591 -0.0220
vn 0.7182 0.6912 -0.0803
vn -0.8299 -0.5561 0.0453
vn -0.7222 -0.6914 -0.0193
vn 0.3905 0.9132 -0.1167
vn -0.3883 -0.9198 -0.0565
vn -0.0000 0.9915 -0.1299
vn -0.0000 -0.9972 -0.0745
vn 0.3883 -0.9198 -0.0565
vn 0.7222 -0.6914 -0.0193
vn 0.8299 -0.5561 0.0453
vn -0.8288 0.5591 -0.0220
vn 0.9797 -0.1999 -0.0119
vn 0.9807 -0.1933 0.0283
vn -0.3939 -0.8362 0.3817
vn -0.7240 -0.6254 0.2909
vn -0.7465 -0.5609 0.3579
vn -0.4093 -0.7692 0.4907
vn 0.7240 -0.6254 0.2909
vn 0.8319 -0.4919 0.2569
vn -0.8310 0.5052 -0.2330
vn 0.9806 -0.1802 0.0765
vn 0.9809 -0.1711 0.0931
vn -0.9808 0.1707 -0.0938
vn -0.9807 0.1794 -0.0783
vn 0.9807 0.1794 -0.0783
vn 0.9808 0.1707 -0.0938
vn -0.9809 -0.1711 0.0931
vn -0.9806 -0.1802 0.0765
vn 0.8310 0.5052 -0.2330
vn 0.7201 0.6187 -0.3141
vn -0.8319 -0.4919 0.2569
vn 0.3919 0.8187 -0.4196
vn -0.0000 0.8895 -0.4569
vn -0.0000 -0.9106 0.4132
vn 0.3939 -0.8362 0.3817
vn -0.0000 -0.5378 -0.8430
vn -0.0000 -0.5379 -0.8430
vn 0.3731 0.7822 -0.4990
vn -0.0000 0.8430 -0.5378
vn -0.0000 -0.8430 0.5378
vn 0.4093 -0.7692 0.4907
vn -0.3731 0.7822 -0.4990
vn 0.7465 -0.5609 0.3579
vn -0.6898 0.6104 -0.3894
vn 0.8315 -0.4684 0.2988
vn -0.8315 0.4684 -0.2988
vn 0.9808 -0.1645 0.1049
vn -0.9808 0.1645 -0.1049
vn 0.9808 0.1645 -0.1049
vn -0.9808 -0.1645 0.1049
vn 0.8315 0.4684 -0.2988
vn 0.6898 0.6104 -0.3894
vn -0.8315 -0.4684 0.2988
vn -0.0000 -0.5378 -0.8431
vt 0.341844 0.471731
vt 0.419706 0.419706
vt 0.500000 0.921585
vt 0.562500 0.921586
vt 0.437500 0.921586
vt 0.080294 0.419706
vt 0.158156 0.471731
vt 0.471731 0.158156
vt 0.419706 0.080294
vt 0.375000 0.921585
vt 0.158156 0.028269
vt 0.080294 0.080294
vt 0.312500 0.921585
vt 0.250000 0.490000
vt 0.250000 0.921585
vt 0.028269 0.341844
vt 0.490000 0.250000
vt 0.187500 0.921586
vt 0.250000 0.010000
vt 0.125000 0.921585
vt 0.937500 0.921585
vt 1.000000 0.921586
vt 0.750000 0.490000
vt 0.841844 0.471731
vt 0.919706 0.419706
vt 0.658156 0.471731
vt 0.062500 0.500000
vt 0.062500 0.921586
vt 0.000000 0.921586
vt 0.000000 0.500000
vt 0.125000 0.500000
vt 0.187500 0.500000
vt 0.250000 0.500000
vt 0.312500 0.500000
vt 0.375000 0.500000
vt 0.437500 0.500000
vt 0.500000 0.500000
vt 0.562500 0.500000
vt 0.625000 0.500000
vt 0.625000 0.921586
vt 0.687500 0.500000
vt 0.687500 0.921585
vt 0.750000 0.500000
vt 0.750000 0.921586
vt 0.812500 0.500000
vt 0.812500 0.921585
vt 0.875000 0.500000
vt 0.875000 0.921586
vt 0.937500 0.500000
vt 1.000000 0.500000
vt 1.000000 1.000000
vt 0.937500 1.000000
vt 0.875000 1.000000
vt 0.812500 1.000000
vt 0.750000 1.000000
vt 0.687500 1.000000
vt 0.625000 1.000000
vt 0.562500 1.000000
vt 0.500000 1.000000
vt 0.437500 1.000000
vt 0.375000 1.000000
vt 0.312500 1.000000
vt 0.250000 1.000000
vt 0.187500 1.000000
vt 0.125000 1.000000
vt 0.062500 1.000000
vt 0.000000 1.000000
vt 0.028269 0.158156
vt 0.341844 0.028269
vt 0.471731 0.341844
vt 0.010000 0.250000
vt 0.750000 0.490000
vt 0.841844 0.471731
vt 0.919706 0.419706
vt 0.658156 0.471731
vt 0.341844 0.471731
vt 0.250000 0.490000
vt 0.471731 0.341844
vt 0.419706 0.419706
vt 0.028269 0.341844
vt 0.419706 0.080294
vt 0.080294 0.080294
vt 0.341844 0.028269
vt 0.158156 0.028269
vt 0.010000 0.250000
vt 0.028269 0.158156
vt 0.471731 0.158156
vt 0.490000 0.250000
vt 0.158156 0.471731
vt 0.080294 0.419706
vt 0.510000 0.250000
vt 0.528269 0.341844
vt 0.580294 0.419706
vt 0.658156 0.028269
vt 0.580294 0.080294
vt 0.528269 0.158156
vt 0.919706 0.080294
vt 0.841844 0.028269
vt 0.750000 0.010000
vt 0.971731 0.341844
vt 0.990000 0.250000
vt 0.971731 0.158156
vt 0.510000 0.250000
vt 0.528269 0.341844
vt 0.580294 0.419706
vt 0.658156 0.028269
vt 0.580294 0.080294
vt 0.528269 0.158156
vt 0.919706 0.080294
vt 0.841844 0.028269
vt 0.971731 0.341844
vt 0.990000 0.250000
vt 0.971731 0.158156
s 1
usemtl Material.010
f 4/1/1 6/2/2 52/2/3 49/1/4
f 41/3/5 40/4/6 72/4/6 73/3/5
f 42/5/7 41/3/5 73/3/5 74/5/7
f 30/6/8 32/7/9 65/7/10 64/6/11
f 12/8/12 14/9/13 56/9/14 55/8/15
f 43/10/16 42/5/7 74/5/7 75/10/16
f 20/11/17 22/12/18 60/12/19 59/11/20
f 44/13/21 43/10/16 75/10/16 76/13/21
f 2/14/22 4/1/1 49/1/4 50/14/23
f 45/15/24 44/13/21 76/13/21 77/15/24
f 28/16/25 30/6/8 64/6/11 63/16/26
f 10/17/27 12/8/12 55/8/15 54/17/28
f 46/18/29 45/15/24 77/15/24 78/18/29
f 18/19/30 20/11/17 59/11/20 58/19/31
f 4/1/1 18/19/30 12/8/12 6/2/2
f 47/20/32 46/18/29 78/18/29 79/20/32
f 34/21/33 33/22/34 51/22/34 66/21/33
f 1/23/35 3/24/35 5/25/35 31/26/35
f 51/22/37 50/51/37 49/52/51 66/21/51
f 66/21/51 49/52/51 52/53/50 67/48/50
f 67/48/50 52/53/50 53/54/49 68/46/49
f 68/46/49 53/54/49 54/55/48 69/44/48
f 69/44/48 54/55/48 55/56/47 70/42/47
f 70/42/47 55/56/47 56/57/46 71/40/46
f 71/40/46 56/57/46 57/58/45 72/4/45
f 72/4/45 57/58/45 58/59/44 73/3/44
f 73/3/44 58/59/44 59/60/43 74/5/43
f 74/5/43 59/60/43 60/61/42 75/10/42
f 75/10/42 60/61/42 61/62/41 76/13/41
f 76/13/41 61/62/41 62/63/40 77/15/40
f 77/15/40 62/63/40 63/64/39 78/18/39
f 78/18/39 63/64/39 64/65/38 79/20/38
f 79/20/38 64/65/38 65/66/36 80/28/36
f 80/28/36 65/66/36 50/67/37 51/29/37
f 22/12/18 24/68/52 61/68/53 60/12/19
f 40/4/6 39/40/54 71/40/54 72/4/6
f 14/9/13 16/69/55 57/69/56 56/9/14
f 32/7/9 2/14/22 50/14/23 65/7/10
f 39/40/54 38/42/57 70/42/57 71/40/54
f 38/42/57 37/44/58 69/44/58 70/42/57
f 6/2/2 8/70/59 53/70/60 52/2/3
f 24/68/52 26/71/61 62/71/62 61/68/53
f 37/44/58 36/46/63 68/46/63 69/44/58
f 16/69/55 18/19/30 58/19/31 57/69/56
f 36/46/63 35/48/64 67/48/64 68/46/63
f 33/29/34 48/28/65 80/28/65 51/29/34
f 35/48/64 34/21/33 66/21/33 67/48/64
f 8/70/59 10/17/27 54/17/28 53/70/60
f 26/71/61 28/16/25 63/16/26 62/71/62
f 48/28/65 47/20/32 79/20/32 80/28/65
f 81/50/66 82/51/67 84/52/68 83/49/69
f 83/49/69 84/52/68 86/53/70 85/47/71
f 85/47/71 86/53/70 88/54/72 87/45/73
f 87/45/73 88/54/72 90/55/74 89/43/75
f 89/43/75 90/55/74 92/56/76 91/41/77
f 91/41/77 92/56/76 94/57/78 93/39/79
f 93/39/79 94/57/78 96/58/80 95/38/81
f 95/38/81 96/58/80 98/59/82 97/37/83
f 97/37/83 98/59/82 100/60/84 99/36/85
f 99/36/85 100/60/84 102/61/86 101/35/87
f 101/35/87 102/61/86 104/62/88 103/34/89
f 103/34/89 104/62/88 106/63/90 105/33/91
f 105/33/91 106/63/90 108/64/92 107/32/93
f 107/32/93 108/64/92 110/65/94 109/31/95
f 94/57/78 92/56/76 118/56/96 119/57/97
f 109/31/95 110/65/94 112/66/98 111/27/99
f 111/27/99 112/66/98 82/67/67 81/30/66
f 81/72/35 83/73/35 85/74/35 111/75/35
f 115/53/100 113/52/101 129/52/102 131/53/103
f 104/62/88 102/61/86 123/61/104 124/62/105
f 82/67/67 112/66/98 128/66/106 114/67/107
f 90/55/74 88/54/72 116/54/108 117/55/109
f 100/60/84 98/59/82 121/59/110 122/60/111
f 110/65/94 108/64/92 126/64/112 127/65/113
f 86/53/70 84/52/68 113/52/101 115/53/100
f 96/58/80 94/57/78 119/57/97 120/58/114
f 106/63/90 104/62/88 124/62/105 125/63/115
f 92/56/76 90/55/74 117/55/109 118/56/96
f 102/61/86 100/60/84 122/60/111 123/61/104
f 112/66/98 110/65/94 127/65/113 128/66/106
f 88/54/72 86/53/70 115/53/100 116/54/108
f 98/59/82 96/58/80 120/58/114 121/59/110
f 84/52/68 82/51/67 114/51/107 113/52/101
f 108/64/92 106/63/90 125/63/115 126/64/112
f 136/58/116 135/57/117 151/57/118 152/58/119
f 123/61/104 122/60/111 138/60/120 139/61/121
f 116/54/108 115/53/100 131/53/103 132/54/122
f 124/62/105 123/61/104 139/61/121 140/62/123
f 117/55/109 116/54/108 132/54/122 133/55/124
f 125/63/115 124/62/105 140/62/123 141/63/125
f 118/56/96 117/55/109 133/55/124 134/56/126
f 126/64/112 125/63/115 141/63/125 142/64/127
f 119/57/97 118/56/96 134/56/126 135/57/117
f 127/65/113 126/64/112 142/64/127 143/65/128
f 120/58/114 119/57/97 135/57/117 136/58/116
f 128/66/106 127/65/113 143/65/128 144/66/129
f 121/59/130 120/58/114 136/58/116 137/59/131
f 113/52/101 114/51/107 130/51/132 129/52/102
f 114/67/107 128/66/106 144/66/129 130/67/132
f 122/60/111 121/59/130 137/59/131 138/60/120
f 157/63/133 156/62/134 172/62/135 173/63/136
f 144/66/137 143/65/128 159/65/138 160/66/139
f 137/59/131 136/58/116 152/58/119 153/59/140
f 129/52/141 130/51/142 146/51/143 145/52/144
f 130/67/142 144/66/137 160/66/139 146/67/143
f 138/60/120 137/59/131 153/59/140 154/60/145
f 131/53/103 129/52/141 145/52/144 147/53/146
f 139/61/121 138/60/120 154/60/145 155/61/147
f 132/54/122 131/53/103 147/53/146 148/54/148
f 140/62/123 139/61/121 155/61/147 156/62/149
f 133/55/124 132/54/122 148/54/150 149/55/151
f 141/63/125 140/62/123 156/62/134 157/63/133
f 134/56/126 133/55/124 149/55/152 150/56/153
f 142/64/127 141/63/125 157/63/154 158/64/155
f 135/57/117 134/56/126 150/56/156 151/57/118
f 143/65/128 142/64/127 158/64/157 159/65/138
f 171/61/158 170/60/159 186/60/160 187/61/161
f 150/56/153 149/55/152 165/55/162 166/56/163
f 158/64/155 157/63/154 173/63/164 174/64/165
f 151/57/118 150/56/156 166/56/166 167/57/167
f 159/65/138 158/64/157 174/64/168 175/65/169
f 152/58/119 151/57/118 167/57/167 168/58/170
f 160/66/139 159/65/138 175/65/169 176/66/171
f 153/59/140 152/58/119 168/58/170 169/59/172
f 145/52/144 146/51/143 162/51/173 161/52/174
f 146/67/143 160/66/139 176/66/171 162/67/173
f 154/60/145 153/59/140 169/59/172 170/60/159
f 147/53/146 145/52/144 161/52/174 163/53/175
f 155/61/147 154/60/145 170/60/159 171/61/158
f 148/54/148 147/53/146 163/53/175 164/54/176
f 156/62/149 155/61/147 171/61/158 172/62/177
f 149/55/151 148/54/150 164/54/178 165/55/179
f 192/66/180 191/65/181 207/65/182 208/66/183
f 164/54/176 163/53/175 179/53/184 180/54/185
f 172/62/177 171/61/158 187/61/161 188/62/186
f 165/55/179 164/54/178 180/54/187 181/55/188
f 173/63/136 172/62/135 188/62/189 189/63/190
f 166/56/163 165/55/162 181/55/191 182/56/192
f 174/64/165 173/63/164 189/63/193 190/64/194
f 167/57/167 166/56/166 182/56/195 183/57/196
f 175/65/169 174/64/168 190/64/197 191/65/181
f 168/58/170 167/57/167 183/57/196 184/58/198
f 176/66/171 175/65/169 191/65/181 192/66/180
f 169/59/172 168/58/170 184/58/198 185/59/199
f 161/52/174 162/51/173 178/51/200 177/52/201
f 162/67/173 176/66/171 192/66/180 178/67/200
f 170/60/159 169/59/172 185/59/199 186/60/160
f 163/53/175 161/52/174 177/52/201 179/53/184
f 193/76/202 194/77/203 196/78/202 195/79/202
f 185/59/199 184/58/198 200/58/204 201/59/205
f 177/52/201 178/51/200 194/51/206 193/52/207
f 178/67/200 192/66/180 208/66/183 194/67/206
f 186/60/160 185/59/199 201/59/205 202/60/208
f 179/53/184 177/52/201 193/52/207 195/53/209
f 187/61/161 186/60/160 202/60/208 203/61/210
f 180/54/185 179/53/184 195/53/209 196/54/211
f 188/62/186 187/61/161 203/61/210 204/62/212
f 181/55/188 180/54/187 196/54/213 197/55/213
f 189/63/190 188/62/189 204/62/214 205/63/214
f 182/56/192 181/55/191 197/55/215 198/56/215
f 190/64/194 189/63/193 205/63/216 206/64/216
f 183/57/196 182/56/195 198/56/217 199/57/218
f 191/65/181 190/64/197 206/64/219 207/65/182
f 184/58/198 183/57/196 199/57/218 200/58/204
f 196/78/202 194/77/203 206/80/202 199/81/202
f 199/81/202 206/80/202 203/82/202 200/83/202
f 200/83/202 203/82/202 202/84/203 201/19/203
f 203/82/202 206/80/202 205/85/220 204/86/220
f 199/81/202 198/87/220 197/88/220 196/78/202
f 206/80/202 194/77/203 208/89/202 207/90/202
f 31/26/35 25/91/35 27/92/35 29/93/35
f 25/91/35 19/94/35 21/95/35 23/96/35
f 19/94/35 13/97/35 15/98/35 17/99/35
f 13/97/35 7/100/35 9/101/35 11/102/35
f 7/100/35 25/91/35 31/26/35 5/25/35
f 7/100/35 13/97/35 19/94/35 25/91/35
f 6/2/2 12/8/12 10/17/27 8/70/59
f 12/8/12 18/19/30 16/69/55 14/9/13
f 18/19/30 4/1/1 30/6/8 24/68/52
f 24/68/52 30/6/8 28/16/25 26/71/61
f 24/68/52 22/12/18 20/11/17 18/19/30
f 30/6/8 4/1/1 2/14/22 32/7/9
f 111/75/35 105/103/35 107/104/35 109/105/35
f 105/103/35 99/106/35 101/107/35 103/108/35
f 99/106/35 93/109/35 95/110/35 97/99/35
f 93/109/35 87/111/35 89/112/35 91/113/35
f 87/111/35 105/103/35 111/75/35 85/74/35
f 87/111/35 93/109/35 99/106/35 105/103/35
usemtl Material.011
f 31/27/36 48/28/36 33/29/37 1/30/37
f 29/31/38 47/20/38 48/28/36 31/27/36
f 27/32/39 46/18/39 47/20/38 29/31/38
f 25/33/40 45/15/40 46/18/39 27/32/39
f 23/34/41 44/13/41 45/15/40 25/33/40
f 21/35/42 43/10/42 44/13/41 23/34/41
f 19/36/43 42/5/43 43/10/42 21/35/42
f 17/37/44 41/3/44 42/5/43 19/36/43
f 15/38/45 40/4/45 41/3/44 17/37/44
f 13/39/46 39/40/46 40/4/45 15/38/45
f 11/41/47 38/42/47 39/40/46 13/39/46
f 9/43/48 37/44/48 38/42/47 11/41/47
f 7/45/49 36/46/49 37/44/48 9/43/48
f 5/47/50 35/48/50 36/46/49 7/45/49
f 3/49/51 34/21/51 35/48/50 5/47/50
f 1/50/37 33/22/37 34/21/51 3/49/51
