# Blender 4.1.0
# www.blender.org
mtllib tele1.mtl
o tele1_blocking
v -0.747371 -0.747371 0.747371
v -0.747371 0.747371 0.747371
v -0.747371 -0.747371 -0.747370
v -0.747371 0.747371 -0.747370
v 0.747371 -0.542472 0.329770
v 0.747371 0.663568 0.663568
v 0.747371 -0.542472 -0.636994
v 0.747371 0.663568 -0.663567
v 0.747371 0.747371 -0.747370
v 0.747371 -0.688686 -0.643729
v 0.747371 -0.688686 0.336505
v 0.747371 0.747371 0.747371
v 0.747371 -0.747371 0.747371
v 0.747371 -0.747371 -0.747370
v 0.747371 -0.483788 0.663568
v 0.747371 -0.483788 -0.663567
v 0.759373 -0.681990 0.329909
v 0.759373 -0.681990 -0.637133
v 0.759373 -0.549169 0.323265
v 0.759373 -0.549169 -0.630489
v 0.739930 -0.557417 0.418356
v 0.766988 -0.557417 0.421154
v 0.739930 -0.582442 0.423334
v 0.766988 -0.581371 0.425919
v 0.739930 -0.603657 0.437510
v 0.766988 -0.601679 0.439488
v 0.739930 -0.617833 0.458725
v 0.766988 -0.615248 0.459796
v 0.739930 -0.622811 0.483750
v 0.766988 -0.620013 0.483750
v 0.739930 -0.617833 0.508775
v 0.766988 -0.615248 0.507705
v 0.739930 -0.603657 0.529991
v 0.766988 -0.601679 0.528012
v 0.739930 -0.582442 0.544166
v 0.766988 -0.581371 0.541581
v 0.739930 -0.557417 0.549144
v 0.766988 -0.557417 0.546346
v 0.739930 -0.532391 0.544166
v 0.766988 -0.533462 0.541581
v 0.739930 -0.511176 0.529991
v 0.766988 -0.513154 0.528012
v 0.739930 -0.497000 0.508775
v 0.766988 -0.499585 0.507705
v 0.739930 -0.492023 0.483750
v 0.766988 -0.494820 0.483750
v 0.739930 -0.497000 0.458725
v 0.766988 -0.499585 0.459796
v 0.739930 -0.511176 0.437510
v 0.766988 -0.513154 0.439488
v 0.739930 -0.532391 0.423334
v 0.766988 -0.533462 0.425919
v 0.745867 -0.672885 0.447054
v 0.761051 -0.672885 0.449639
v 0.745867 -0.686928 0.449848
v 0.761051 -0.685939 0.452236
v 0.745867 -0.698833 0.457802
v 0.761051 -0.697005 0.459630
v 0.745867 -0.706788 0.469707
v 0.761051 -0.704400 0.470697
v 0.745867 -0.709581 0.483750
v 0.761051 -0.706996 0.483750
v 0.745867 -0.706788 0.497793
v 0.761051 -0.704400 0.496804
v 0.745867 -0.698833 0.509698
v 0.761051 -0.697005 0.507870
v 0.745867 -0.686928 0.517653
v 0.761051 -0.685939 0.515264
v 0.745867 -0.672885 0.520446
v 0.761051 -0.672885 0.517861
v 0.745867 -0.658843 0.517653
v 0.761051 -0.659832 0.515264
v 0.745867 -0.646937 0.509698
v 0.761051 -0.648765 0.507870
v 0.745867 -0.638983 0.497793
v 0.761051 -0.641371 0.496804
v 0.745867 -0.636190 0.483750
v 0.761051 -0.638774 0.483750
v 0.745867 -0.638983 0.469707
v 0.761051 -0.641371 0.470697
v 0.745867 -0.646937 0.457802
v 0.761051 -0.648765 0.459630
v 0.745867 -0.658843 0.449848
v 0.761051 -0.659832 0.452236
v 0.734951 0.652566 -0.650841
v 0.734951 -0.472786 -0.650841
v 0.734951 -0.472786 0.650842
v 0.734951 0.652566 0.650842
vn -1.0000 -0.0000 -0.0000
vn -0.0000 -0.0000 -1.0000
vn 0.7157 -0.0000 -0.6984
vn -0.0000 -0.0000 1.0000
vn -0.0000 -1.0000 -0.0000
vn -0.0000 1.0000 -0.0000
vn 1.0000 -0.0000 -0.0000
vn 0.4872 0.8733 -0.0000
vn 0.4786 0.0421 -0.8770
vn 0.4872 -0.8733 -0.0000
vn 0.4786 0.0421 0.8770
vn 0.1029 -0.0000 -0.9947
vn 0.1029 -0.3807 -0.9190
vn 0.1029 -0.7034 -0.7034
vn 0.1029 -0.9190 -0.3807
vn 0.1029 -0.9947 -0.0000
vn 0.1029 -0.9190 0.3807
vn 0.1029 -0.7034 0.7034
vn 0.1029 -0.3807 0.9190
vn 0.1029 -0.0000 0.9947
vn 0.1029 0.3807 0.9190
vn 0.1029 0.7034 0.7034
vn 0.1029 0.9190 0.3807
vn 0.1029 0.9947 -0.0000
vn 0.1029 0.9190 -0.3807
vn 0.1029 0.7034 -0.7034
vn 0.1029 0.3807 -0.9190
vn 0.1678 -0.0000 -0.9858
vn 0.1678 -0.3773 -0.9108
vn 0.1678 -0.6971 -0.6971
vn 0.1678 -0.9108 -0.3773
vn 0.1678 -0.9858 -0.0000
vn 0.1678 -0.9108 0.3773
vn 0.1678 -0.6971 0.6971
vn 0.1678 -0.3773 0.9108
vn 0.1678 -0.0000 0.9858
vn 0.1678 0.3773 0.9108
vn 0.1678 0.6971 0.6971
vn 0.1678 0.9108 0.3773
vn 0.1678 0.9858 -0.0000
vn 0.1678 0.9108 -0.3773
vn 0.1678 0.6971 -0.6971
vn 0.1678 0.3773 -0.9108
vn 0.6631 0.7485 -0.0000
vn 0.6631 -0.7485 -0.0000
vn 0.7157 -0.0000 0.6984
vt 0.375000 0.000000
vt 0.625000 0.000000
vt 0.625000 0.250000
vt 0.375000 0.250000
vt 0.625000 0.500000
vt 0.375000 0.500000
vt 0.610984 0.735984
vt 0.389016 0.735984
vt 0.375000 0.750000
vt 0.625000 0.750000
vt 0.625000 1.000000
vt 0.375000 1.000000
vt 0.125000 0.500000
vt 0.125000 0.750000
vt 0.875000 0.500000
vt 0.875000 0.750000
vt 0.610984 0.514016
vt 0.389016 0.514016
vt 0.385717 0.521606
vt 0.385717 0.728394
vt 0.378299 0.514189
vt 0.378299 0.735811
vt 1.000000 0.500000
vt 1.000000 1.000000
vt 0.937500 1.000000
vt 0.937500 0.500000
vt 0.875000 1.000000
vt 0.812500 1.000000
vt 0.812500 0.500000
vt 0.750000 1.000000
vt 0.750000 0.500000
vt 0.687500 1.000000
vt 0.687500 0.500000
vt 0.562500 1.000000
vt 0.562500 0.500000
vt 0.500000 1.000000
vt 0.500000 0.500000
vt 0.437500 1.000000
vt 0.437500 0.500000
vt 0.312500 1.000000
vt 0.312500 0.500000
vt 0.250000 1.000000
vt 0.250000 0.500000
vt 0.187500 1.000000
vt 0.187500 0.500000
vt 0.125000 1.000000
vt 0.341844 0.471731
vt 0.490000 0.250000
vt 0.471731 0.341844
vt 0.419706 0.419706
vt 0.062500 1.000000
vt 0.062500 0.500000
vt 0.000000 1.000000
vt 0.000000 0.500000
vt 0.750000 0.490000
vt 0.841844 0.471731
vt 0.580294 0.419706
vt 0.658156 0.471731
vt 0.250000 0.490000
vt 0.080294 0.080294
vt 0.341844 0.028269
vt 0.158156 0.028269
vt 0.250000 0.010000
vt 0.419706 0.080294
vt 0.471731 0.158156
vt 0.080294 0.419706
vt 0.028269 0.158156
vt 0.028269 0.341844
vt 0.010000 0.250000
vt 0.158156 0.471731
vt 0.841844 0.028269
vt 0.580294 0.080294
vt 0.528269 0.341844
vt 0.528269 0.158156
vt 0.510000 0.250000
vt 0.750000 0.010000
vt 0.658156 0.028269
vt 0.990000 0.250000
vt 0.971731 0.158156
vt 0.919706 0.080294
vt 0.919706 0.419706
vt 0.971731 0.341844
s 1
usemtl Material.012
f 1/1/1 2/2/1 4/3/1 3/4/1
f 3/4/2 4/3/2 9/5/2 14/6/2
f 6/7/3 15/8/3 87/8/3 88/7/3
f 13/9/4 12/10/4 2/11/4 1/12/4
f 3/13/5 14/6/5 13/9/5 1/14/5
f 9/5/6 4/15/6 2/16/6 12/10/6
f 8/17/7 16/18/7 14/6/7 9/5/7
f 7/19/8 5/20/8 19/20/8 20/19/8
f 6/7/7 8/17/7 9/5/7 12/10/7
f 15/8/7 6/7/7 12/10/7 13/9/7
f 10/21/7 11/22/7 13/9/7 14/6/7
f 5/20/7 7/19/7 16/18/7 15/8/7
f 7/19/7 10/21/7 14/6/7 16/18/7
f 11/22/7 5/20/7 15/8/7 13/9/7
f 10/21/9 7/19/9 20/19/9 18/21/9
f 11/22/10 10/21/10 18/21/10 17/22/10
f 5/20/11 11/22/11 17/22/11 19/20/11
f 15/8/44 16/18/44 86/18/44 87/8/44
f 8/17/45 6/7/45 88/7/45 85/17/45
f 16/18/46 8/17/46 85/17/46 86/18/46
usemtl Material.013
f 86/18/7 85/17/7 88/7/7 87/8/7
usemtl Material.014
f 20/19/7 19/20/7 17/22/7 18/21/7
f 21/23/12 22/24/12 24/25/13 23/26/13
f 23/26/13 24/25/13 26/27/14 25/15/14
f 25/15/14 26/27/14 28/28/15 27/29/15
f 27/29/15 28/28/15 30/30/16 29/31/16
f 29/31/16 30/30/16 32/32/17 31/33/17
f 31/33/17 32/32/17 34/11/18 33/5/18
f 33/5/18 34/11/18 36/34/19 35/35/19
f 35/35/19 36/34/19 38/36/20 37/37/20
f 37/37/20 38/36/20 40/38/21 39/39/21
f 39/39/21 40/38/21 42/12/22 41/6/22
f 41/6/22 42/12/22 44/40/23 43/41/23
f 43/41/23 44/40/23 46/42/24 45/43/24
f 45/43/24 46/42/24 48/44/25 47/45/25
f 47/45/25 48/44/25 50/46/26 49/13/26
f 24/47/7 30/48/7 28/49/7 26/50/7
f 49/13/26 50/46/26 52/51/27 51/52/27
f 51/52/27 52/51/27 22/53/12 21/54/12
f 21/55/1 23/56/1 49/57/1 51/58/1
f 53/23/28 54/24/28 56/25/29 55/26/29
f 55/26/29 56/25/29 58/27/30 57/15/30
f 57/15/30 58/27/30 60/28/31 59/29/31
f 59/29/31 60/28/31 62/30/32 61/31/32
f 61/31/32 62/30/32 64/32/33 63/33/33
f 63/33/33 64/32/33 66/11/34 65/5/34
f 65/5/34 66/11/34 68/34/35 67/35/35
f 67/35/35 68/34/35 70/36/36 69/37/36
f 69/37/36 70/36/36 72/38/37 71/39/37
f 71/39/37 72/38/37 74/12/38 73/6/38
f 73/6/38 74/12/38 76/40/39 75/41/39
f 75/41/39 76/40/39 78/42/40 77/43/40
f 77/43/40 78/42/40 80/44/41 79/45/41
f 79/45/41 80/44/41 82/46/42 81/13/42
f 56/47/7 54/59/7 60/49/7 58/50/7
f 81/13/42 82/46/42 84/51/43 83/52/43
f 83/52/43 84/51/43 54/53/28 53/54/28
f 53/55/1 55/56/1 81/57/1 83/58/1
f 30/48/7 24/47/7 42/60/7 36/61/7
f 36/61/7 42/60/7 40/62/7 38/63/7
f 36/61/7 34/64/7 32/65/7 30/48/7
f 42/60/7 24/47/7 50/66/7 44/67/7
f 44/67/7 50/66/7 48/68/7 46/69/7
f 50/66/7 24/47/7 22/59/7 52/70/7
f 60/49/7 54/59/7 72/62/7 66/64/7
f 66/64/7 72/62/7 70/63/7 68/61/7
f 66/64/7 64/65/7 62/48/7 60/49/7
f 72/62/7 54/59/7 80/68/7 74/60/7
f 74/60/7 80/68/7 78/69/7 76/67/7
f 80/68/7 54/59/7 84/70/7 82/66/7
f 81/57/1 67/71/1 73/72/1 79/73/1
f 79/73/1 73/72/1 75/74/1 77/75/1
f 73/72/1 67/71/1 69/76/1 71/77/1
f 67/71/1 61/78/1 63/79/1 65/80/1
f 61/78/1 55/56/1 57/81/1 59/82/1
f 61/78/1 67/71/1 81/57/1 55/56/1
f 49/57/1 35/71/1 41/72/1 47/73/1
f 47/73/1 41/72/1 43/74/1 45/75/1
f 41/72/1 35/71/1 37/76/1 39/77/1
f 35/71/1 29/78/1 31/79/1 33/80/1
f 29/78/1 23/56/1 25/81/1 27/82/1
f 29/78/1 35/71/1 49/57/1 23/56/1
